<?xml version="1.0" encoding="UTF-8"?><svg id="a" xmlns="http://www.w3.org/2000/svg" viewBox="0 0 557 521"><defs><style>.b{fill:#f37021;}.b,.c{fill-rule:evenodd;}.c{fill:#034ea2;}</style></defs><path class="b" d="M288.43,64.25c-22.36-.18-45.3,3.73-66.65,10.48-73.44,23.23-126.68,91.92-126.68,173.05,0,48.09,18.71,91.8,49.23,124.27-9.76,7.32-19.63,14.33-29.71,21.16-31.68-35.56-50.93-82.42-50.93-133.8,0-96.37,67.73-176.92,158.18-196.64,21.96-4.79,45.31-6.95,66.86,.74,1.2,.43,.2,.74-.32,.74h0Zm-121.76,327.94c-10.1,7.36-23.03,16.1-31.25,21.24,7.96,6.7,16.44,12.8,25.39,18.21,11.05-7.3,21.82-14.79,32.44-22.61-9.37-4.85-18.26-10.49-26.58-16.84h0Zm56.51,29.08c-9.54,7.88-24.9,18.3-34.59,24.39,23.55,9.67,49.34,15.01,76.37,15.01,94.86,0,174.39-65.62,195.67-153.94,5.14-21.34,7.85-48.07,3.52-69.48-.66-3.26-1.62-1.47-2.38,.36-1.11,18.95-5.88,44.38-11.47,62.87-22.58,74.52-91.8,128.79-173.7,128.79-18.59,0-36.52-2.8-53.41-7.99Z"/><path class="b" d="M243.96,409.15c17.84,2.33,26.18,.52,41.89-1.24,71.4-8.1,129.61-64.24,136.21-137.01,4.05-44.68-12.17-86.54-41.23-116.89,9.91-6.91,16.74-12.04,25.17-17.83,30.9,33.46,48.02,78.92,43.62,127.36-7.7,84.93-78.81,149.45-163.62,152.92-15.05,.61-28.41-.45-42.36-6.73-.99-.45-.12-.64,.32-.59h0Zm112.86-275.55c-8.41-5.78-17.45-10.78-27.03-14.87,9.86-6.99,16.99-12.33,27.53-19.25,9.01,4.55,17.54,9.86,25.5,15.81-7.54,5.3-17.36,11.93-26.01,18.31h0Zm-64.15-25.52c8.64-6.98,20.42-15.01,29.98-21.66-9.31-2.4-18.95-4.08-28.87-4.94-87.79-7.62-166,50.81-183.31,133.26-.45,2.12-.85,4.26-1.21,6.41-1.74,12.75-2.99,18.77-1.56,31.3,.31,2.75,1.26,1.34,2.05-.13,2.32-15.3,5.27-22.63,9.18-36.21,19.86-68.6,87.32-115.93,162.61-109.4,3.76,.33,7.47,.79,11.13,1.36Z"/><path class="c" d="M338.64,332.73c-5.16,0-8.95-1.1-12.82-4.73-3.44-3.23-4.9-7.95-4.9-12.82,0-8.54,7.73-15.99,17.08-15.99,8.71,0,16.46,7.62,16.46,16.2v1.29c0,8.1-7.67,16.05-15.81,16.05h0Zm-98.25-2.05c-9.28,0-16.8-7.54-16.82-16.8-.02-9.25,7.52-16.82,16.82-16.81,9.27,.02,16.79,7.47,16.78,16.81-.02,9.23-7.58,16.8-16.78,16.8h0ZM23.25,456.08v10.15l.49,3.27c1.46,10.56,6.57,19.87,16.59,24.28,6.11,2.69,10.59,2.42,11.99,3.1h11.49l.54-.16c2.48-.49,5.66-.65,8.48-1.19,36.08-6.93,77.26-31.17,107.01-49.54l19.03-12.15c8.49-5.29,16.6-11.31,24.94-16.77l9.29-6.41c1-.72,1.93-1.4,3.03-2.13,1.07-.71,1.96-1.39,3.01-2.15l21.41-15.16c2.13-1.59,3.91-2.89,6.07-4.45l42.19-30.7c1.05-.67,1.93-1.42,3-2.16l6.13-4.41c2.25-1.7,2.52,1.19,11,3.13,6.15,1.41,12.42,1.36,18.51-.28,2.74-.74,5.03-1.67,7.44-2.88,3.44-1.72,6.3-4.05,9.18-6.52,2.19-1.88,5.19-6.4,6.7-8.99,2.61-4.49,4.23-10.47,4.52-16.4,1.13-22.97-19.33-42.43-43.17-38.83-6.86,1.04-13.37,3.88-18.1,7.93-2.8,2.4-5.47,4.96-7.51,8.19-4.76,7.58-7.06,15.21-6.36,24.4,.31,4.08,1.36,5.93,1.78,8.87-.42,.29-1.54,1.27-1.97,1.68l-4.04,3.7c-.74,.68-1.43,1.03-2.16,1.71-6.73,6.2-14.2,11.63-21.28,17.42l-34.51,27.19c-1.37,1.07-2.88,2.3-4.35,3.39-1.49,1.1-2.83,2.06-4.3,3.24-5.76,4.62-11.63,8.94-17.52,13.43-2.91,2.22-6.13,4.27-8.86,6.62-3.27,2.79-10.55,7.57-14.55,10.61l-3.4,2.4c-6.7,4.9-16.23,11.64-22.9,15.8-6.32,3.95-12.26,8.18-18.72,12.03-6.31,3.76-12.76,7.65-19.54,11.42-16.79,9.35-49.2,25.41-68.56,23.91-9.59-.74-15.53-5.52-18.59-12.38-6.47-14.48-2.08-33.63,3.75-48.07l1.42-2.63c2.25,5.55,4.76,8.93,9.17,12.06,18.93,13.45,56.05-6.91,73.52-16.7,1.83-1.02,3.61-2.11,5.4-3.2,.93-.56,1.71-1.03,2.68-1.61l13.17-8.34c5.3-3.27,10.26-6.97,15.44-10.36,1.76-1.15,3.31-2.38,5.06-3.54,.88-.58,1.69-1.2,2.53-1.78,.42-.29,.79-.61,1.23-.92,.51-.36,.73-.44,1.29-.85l49.78-36.23c1.42-1.01,1.21-1.24,2.82-.39,11.27,5.96,26.88,4.63,37.29-2.51,1.82-1.25,3.18-2.46,4.74-3.85,1.4-1.25,2.98-2.77,4.15-4.45,.56-.81,1.24-1.57,1.81-2.49,.52-.83,1.05-1.8,1.58-2.72,2.03-3.5,3.61-8.42,4.21-12.97,1.45-11.11-1.91-19.71-6.83-26.99-2.24-3.32-5.34-6.32-8.63-8.56-12.34-8.43-26.9-9.16-40.01-2.33-3.67,1.91-7.43,5.07-9.64,7.57-9.51,10.69-12.53,25.33-7.32,39.2l-8.27,7.14c-2.29,1.65-8.76,7.41-11.56,9.73-.39,.32-.73,.5-1.11,.83l-6.32,5.29c-1.39,1.34-2.81,2.27-4.27,3.47l-13.04,10.4c-.68,.56-1.4,1.18-2.16,1.71l-4.37,3.38c-4.08,3.28-13.24,10.32-17.83,13.35-3.08,2.03-5.97,4.41-9.02,6.46l-28.43,18.24c-9.26,5.2-22.02,12.27-33.31,13.36-5.1,.49-9.62-.76-11.57-4.16-6.79-11.79,7.49-47.99,13.01-61.07,1.02-2.42,4.08-10.48-.02-11.49-2.28-.56-3.47,1.91-4.24,3.35-9.3,17.38-19.57,40.8-26.53,59.06-5.11,13.44-10.2,27.76-12.12,42.27-.21,1.59-.43,6.14-.89,7.13Z"/><path class="c" d="M191.71,185.15c5.16,0,8.95,1.1,12.82,4.73,3.44,3.23,4.9,7.95,4.9,12.82,0,8.54-7.73,15.99-17.08,15.99-8.71,0-16.46-7.62-16.46-16.2v-1.29c0-8.1,7.68-16.04,15.81-16.04h0Zm98.25,2.04c9.27,0,16.8,7.54,16.82,16.8,.02,9.25-7.52,16.82-16.82,16.81-9.27-.02-16.8-7.47-16.78-16.81,.02-9.23,7.58-16.8,16.78-16.8h0ZM507.1,61.8v-10.15l-.49-3.27c-1.46-10.56-6.57-19.87-16.59-24.28-6.11-2.69-10.59-2.42-11.99-3.1h-11.49l-.54,.16c-2.48,.5-5.66,.65-8.48,1.19-36.08,6.93-77.26,31.17-107.01,49.54l-19.03,12.15c-8.49,5.29-16.6,11.31-24.94,16.77l-9.29,6.41c-1,.72-1.93,1.4-3.03,2.13-1.07,.7-1.96,1.39-3.01,2.15l-21.4,15.16c-2.14,1.59-3.91,2.89-6.08,4.45l-42.19,30.7c-1.05,.67-1.92,1.42-3,2.16l-6.13,4.41c-2.25,1.7-2.52-1.19-11-3.13-6.15-1.41-12.42-1.36-18.51,.28-2.74,.74-5.02,1.67-7.43,2.88-3.44,1.72-6.31,4.05-9.18,6.52-2.19,1.88-5.2,6.4-6.7,8.99-2.61,4.49-4.23,10.47-4.52,16.4-1.13,22.97,19.33,42.44,43.17,38.83,6.86-1.04,13.37-3.88,18.1-7.93,2.8-2.4,5.48-4.96,7.51-8.19,4.76-7.58,7.06-15.21,6.36-24.4-.31-4.09-1.36-5.93-1.78-8.88,.42-.28,1.54-1.27,1.97-1.68l4.04-3.7c.74-.68,1.43-1.03,2.16-1.71,6.73-6.2,14.2-11.63,21.28-17.42l34.51-27.19c1.37-1.07,2.88-2.3,4.35-3.39,1.49-1.1,2.83-2.06,4.3-3.24,5.76-4.63,11.63-8.94,17.52-13.44,2.91-2.22,6.12-4.27,8.86-6.62,3.26-2.79,10.55-7.57,14.55-10.61l3.4-2.4c6.7-4.9,16.23-11.64,22.9-15.8,6.32-3.94,12.26-8.18,18.72-12.03,6.31-3.76,12.75-7.65,19.54-11.42,16.79-9.34,49.2-25.41,68.56-23.91,9.59,.74,15.53,5.52,18.59,12.37,6.47,14.49,2.08,33.63-3.75,48.07l-1.42,2.63c-2.25-5.54-4.76-8.93-9.17-12.06-18.93-13.45-56.05,6.91-73.52,16.7-1.83,1.02-3.61,2.11-5.4,3.2-.93,.56-1.71,1.03-2.68,1.61l-13.17,8.34c-5.3,3.27-10.26,6.97-15.45,10.36-1.76,1.15-3.32,2.38-5.06,3.54-.88,.59-1.69,1.2-2.52,1.78-.42,.29-.79,.61-1.23,.92-.51,.36-.73,.44-1.29,.85l-49.78,36.23c-1.42,1.01-1.21,1.24-2.82,.39-11.27-5.96-26.87-4.63-37.29,2.5-1.82,1.25-3.18,2.46-4.74,3.85-1.4,1.25-2.98,2.77-4.15,4.46-.56,.81-1.24,1.57-1.81,2.48-.51,.83-1.05,1.8-1.58,2.72-2.02,3.5-3.61,8.42-4.21,12.97-1.45,11.12,1.91,19.71,6.83,27,2.24,3.32,5.34,6.31,8.63,8.56,12.35,8.43,26.9,9.16,40.01,2.33,3.67-1.91,7.42-5.07,9.64-7.56,9.51-10.69,12.53-25.33,7.32-39.2l8.27-7.14c2.28-1.65,8.76-7.42,11.56-9.73,.39-.32,.73-.5,1.11-.82l6.32-5.29c1.39-1.34,2.81-2.26,4.27-3.47l13.04-10.4c.68-.56,1.4-1.17,2.16-1.71l4.36-3.38c4.08-3.28,13.24-10.32,17.83-13.35,3.08-2.03,5.97-4.41,9.02-6.46l28.43-18.23c9.26-5.2,22.02-12.27,33.31-13.36,5.1-.49,9.61,.76,11.57,4.16,6.79,11.79-7.49,47.99-13.01,61.07-1.02,2.42-4.08,10.48,.02,11.49,2.28,.56,3.47-1.91,4.24-3.35,9.3-17.38,19.58-40.8,26.53-59.05,5.12-13.44,10.2-27.76,12.12-42.27,.21-1.59,.42-6.14,.89-7.13Z"/></svg>